STARTFONT 2.1
COMMENT This font was automatically resized by bdfresize-1.5
COMMENT   mag_x = 2/1, mag_y = 2/1, blackness = 4
COMMENT "Copyright (C) 2018 Addy"
COMMENT "Based on M+"
FONT -addy-milkshake-Medium-R-Normal--24-240-75-75-P-120-ISO8859-1
SIZE 24 75 75
FONTBOUNDINGBOX 12 28 0 -8
STARTPROPERTIES 33
FOUNDRY "addy"
FAMILY_NAME "milkshake"
WEIGHT_NAME "Medium"
SLANT "R"
SETWIDTH_NAME "Normal"
ADD_STYLE_NAME ""
PIXEL_SIZE 24
POINT_SIZE 240
RESOLUTION_X 75
RESOLUTION_Y 75
SPACING "P"
AVERAGE_WIDTH 120
CHARSET_REGISTRY "ISO8859"
CHARSET_ENCODING "1"
FONTNAME_REGISTRY ""
CHARSET_COLLECTIONS "ISOLatin1Encoding"
FONT_NAME "milkshakemedium"
FACE_NAME "milkshakemedium"
COPYRIGHT "Copyright (C) 2018 Addy"
FONT_VERSION "001.000"
FONT_ASCENT 20
FONT_DESCENT 4
UNDERLINE_POSITION 0
UNDERLINE_THICKNESS 1
X_HEIGHT 4
CAP_HEIGHT 6
RAW_ASCENT 1000
RAW_DESCENT 200
NORM_SPACE 6
FIGURE_WIDTH 6
AVG_LOWERCASE_WIDTH 60
AVG_UPPERCASE_WIDTH "60"
_GBDFED_INFO "Edited with gbdfed 1.6."
ENDPROPERTIES
CHARS 224
STARTCHAR $0x0000
ENCODING 0
SWIDTH 800 0
DWIDTH 10 0
BBX 8 24 0 -4
BITMAP
FF
FF
FF
FF
FF
FF
FF
FF
FF
FF
FF
FF
FF
FF
FF
FF
FF
FF
FF
FF
FF
FF
FC
FC
ENDCHAR
STARTCHAR $0x0001
ENCODING 1
SWIDTH 960 0
DWIDTH 12 0
BBX 10 10 0 2
BITMAP
0C00
0C00
3F00
3F00
FFC0
FFC0
3F00
3F00
0C00
0C00
ENDCHAR
STARTCHAR $0x0002
ENCODING 2
SWIDTH 960 0
DWIDTH 12 0
BBX 12 24 0 -8
BITMAP
3330
3330
CCC0
CCC0
3330
3330
CCC0
CCC0
3330
3330
CCC0
CCC0
3330
3330
CCC0
CCC0
3330
3330
CCC0
CCC0
3330
3330
CCC0
CCC0
ENDCHAR
STARTCHAR $0x0003
ENCODING 3
SWIDTH 960 0
DWIDTH 12 0
BBX 10 18 0 -2
BITMAP
C0C0
C0C0
FFC0
FFC0
C0C0
C0C0
C0C0
C0C0
0000
0000
FFC0
FFC0
0C00
0C00
0C00
0C00
0C00
0C00
ENDCHAR
STARTCHAR $0x0004
ENCODING 4
SWIDTH 960 0
DWIDTH 12 0
BBX 10 18 0 -2
BITMAP
FFC0
FFC0
C000
C000
FFC0
FFC0
C000
C000
0000
0000
FFC0
FFC0
C000
C000
FFC0
FFC0
C000
C000
ENDCHAR
STARTCHAR $0x0005
ENCODING 5
SWIDTH 960 0
DWIDTH 12 0
BBX 10 18 0 -2
BITMAP
FFC0
FFC0
C0C0
C0C0
C000
C000
FFC0
FFC0
0000
0000
FFC0
FFC0
C0C0
C0C0
FF00
FF00
C0C0
C0C0
ENDCHAR
STARTCHAR $0x0006
ENCODING 6
SWIDTH 960 0
DWIDTH 12 0
BBX 10 18 0 -2
BITMAP
C000
C000
C000
C000
C000
C000
FFC0
FFC0
0000
0000
FFC0
FFC0
C000
C000
FFC0
FFC0
C000
C000
ENDCHAR
STARTCHAR $0x0007
ENCODING 7
SWIDTH 960 0
DWIDTH 12 0
BBX 6 6 0 10
BITMAP
30
30
CC
CC
30
30
ENDCHAR
STARTCHAR $0x0008
ENCODING 8
SWIDTH 960 0
DWIDTH 12 0
BBX 10 14 0 0
BITMAP
0C00
0C00
0C00
0C00
FFC0
FFC0
0C00
0C00
0C00
0C00
0000
0000
FFC0
FFC0
ENDCHAR
STARTCHAR $0x0009
ENCODING 9
SWIDTH 960 0
DWIDTH 12 0
BBX 10 18 0 -2
BITMAP
F0C0
F0C0
CCC0
CCC0
C3C0
C3C0
C0C0
C0C0
0000
0000
C000
C000
C000
C000
C000
C000
FFC0
FFC0
ENDCHAR
STARTCHAR $0x000A
ENCODING 10
SWIDTH 960 0
DWIDTH 12 0
BBX 10 18 0 -2
BITMAP
C0C0
C0C0
C0C0
C0C0
C300
C300
FC00
FC00
0000
0000
FFC0
FFC0
0C00
0C00
0C00
0C00
0C00
0C00
ENDCHAR
STARTCHAR $0x000B
ENCODING 11
SWIDTH 640 0
DWIDTH 8 0
BBX 6 12 0 6
BITMAP
0C
0C
0C
0C
0C
0C
0C
0C
0C
0C
FC
FC
ENDCHAR
STARTCHAR $0x000C
ENCODING 12
SWIDTH 640 0
DWIDTH 8 0
BBX 6 16 0 -8
BITMAP
FC
FC
0C
0C
0C
0C
0C
0C
0C
0C
0C
0C
0C
0C
0C
0C
ENDCHAR
STARTCHAR $0x000D
ENCODING 13
SWIDTH 960 0
DWIDTH 12 0
BBX 8 16 2 -8
BITMAP
FF
FF
C0
C0
C0
C0
C0
C0
C0
C0
C0
C0
C0
C0
C0
C0
ENDCHAR
STARTCHAR $0x000E
ENCODING 14
SWIDTH 800 0
DWIDTH 10 0
BBX 8 12 2 6
BITMAP
C0
C0
C0
C0
C0
C0
C0
C0
C0
C0
FF
FF
ENDCHAR
STARTCHAR $0x000F
ENCODING 15
SWIDTH 960 0
DWIDTH 12 0
BBX 12 26 0 -8
BITMAP
0C00
0C00
0C00
0C00
0C00
0C00
0C00
0C00
0C00
0C00
FFF0
FFF0
0C00
0C00
0C00
0C00
0C00
0C00
0C00
0C00
0C00
0C00
0C00
0C00
0C00
0C00
ENDCHAR
STARTCHAR $0x0010
ENCODING 16
SWIDTH 960 0
DWIDTH 12 0
BBX 12 2 0 14
BITMAP
FFF0
FFF0
ENDCHAR
STARTCHAR $0x0011
ENCODING 17
SWIDTH 960 0
DWIDTH 12 0
BBX 12 2 0 10
BITMAP
FFF0
FFF0
ENDCHAR
STARTCHAR $0x0012
ENCODING 18
SWIDTH 960 0
DWIDTH 12 0
BBX 12 2 0 6
BITMAP
FFF0
FFF0
ENDCHAR
STARTCHAR $0x0013
ENCODING 19
SWIDTH 960 0
DWIDTH 12 0
BBX 12 2 0 2
BITMAP
FFF0
FFF0
ENDCHAR
STARTCHAR $0x0014
ENCODING 20
SWIDTH 960 0
DWIDTH 12 0
BBX 12 2 0 -2
BITMAP
FFF0
FFF0
ENDCHAR
STARTCHAR $0x0015
ENCODING 21
SWIDTH 960 0
DWIDTH 12 0
BBX 8 26 2 -8
BITMAP
C0
C0
C0
C0
C0
C0
C0
C0
C0
C0
FF
FF
C0
C0
C0
C0
C0
C0
C0
C0
C0
C0
C0
C0
C0
C0
ENDCHAR
STARTCHAR $0x0016
ENCODING 22
SWIDTH 640 0
DWIDTH 8 0
BBX 6 26 0 -8
BITMAP
0C
0C
0C
0C
0C
0C
0C
0C
0C
0C
FC
FC
0C
0C
0C
0C
0C
0C
0C
0C
0C
0C
0C
0C
0C
0C
ENDCHAR
STARTCHAR $0x0017
ENCODING 23
SWIDTH 960 0
DWIDTH 12 0
BBX 12 12 0 6
BITMAP
0C00
0C00
0C00
0C00
0C00
0C00
0C00
0C00
0C00
0C00
FFF0
FFF0
ENDCHAR
STARTCHAR $0x0018
ENCODING 24
SWIDTH 960 0
DWIDTH 12 0
BBX 12 16 0 -8
BITMAP
FFF0
FFF0
0C00
0C00
0C00
0C00
0C00
0C00
0C00
0C00
0C00
0C00
0C00
0C00
0C00
0C00
ENDCHAR
STARTCHAR $0x0019
ENCODING 25
SWIDTH 320 0
DWIDTH 4 0
BBX 2 26 0 -8
BITMAP
C0
C0
C0
C0
C0
C0
C0
C0
C0
C0
C0
C0
C0
C0
C0
C0
C0
C0
C0
C0
C0
C0
C0
C0
C0
C0
ENDCHAR
STARTCHAR $0x001A
ENCODING 26
SWIDTH 640 0
DWIDTH 8 0
BBX 8 14 0 0
BITMAP
0C
0C
30
30
C0
C0
30
30
0C
0C
00
00
FF
FF
ENDCHAR
STARTCHAR $0x001B
ENCODING 27
SWIDTH 960 0
DWIDTH 12 0
BBX 8 14 0 0
BITMAP
30
30
0C
0C
03
03
0C
0C
30
30
00
00
FF
FF
ENDCHAR
STARTCHAR $0x001C
ENCODING 28
SWIDTH 960 0
DWIDTH 12 0
BBX 10 10 0 0
BITMAP
FFC0
FFC0
3300
3300
3300
3300
C300
C300
C300
C300
ENDCHAR
STARTCHAR $0x001D
ENCODING 29
SWIDTH 960 0
DWIDTH 12 0
BBX 10 10 0 2
BITMAP
0300
0300
FFC0
FFC0
0C00
0C00
FFC0
FFC0
3000
3000
ENDCHAR
STARTCHAR $0x001E
ENCODING 30
SWIDTH 960 0
DWIDTH 12 0
BBX 10 14 0 0
BITMAP
0F00
0F00
3000
3000
3000
3000
FF00
FF00
3000
3000
3C00
3C00
C3C0
C3C0
ENDCHAR
STARTCHAR $0x001F
ENCODING 31
SWIDTH 960 0
DWIDTH 12 0
BBX 2 2 0 6
BITMAP
C0
C0
ENDCHAR
STARTCHAR $0x0020
ENCODING 32
SWIDTH 480 0
DWIDTH 6 0
BBX 0 0 0 0
BITMAP
ENDCHAR
STARTCHAR $0x0021
ENCODING 33
SWIDTH 320 0
DWIDTH 4 0
BBX 2 14 0 0
BITMAP
C0
C0
C0
C0
C0
C0
C0
C0
C0
C0
00
00
C0
C0
ENDCHAR
STARTCHAR $0x0022
ENCODING 34
SWIDTH 960 0
DWIDTH 12 0
BBX 6 4 0 10
BITMAP
CC
CC
CC
CC
ENDCHAR
STARTCHAR $0x0023
ENCODING 35
SWIDTH 960 0
DWIDTH 12 0
BBX 10 10 0 2
BITMAP
3300
3300
FFC0
FFC0
3300
3300
FFC0
FFC0
3300
3300
ENDCHAR
STARTCHAR $0x0024
ENCODING 36
SWIDTH 960 0
DWIDTH 12 0
BBX 10 14 0 0
BITMAP
0C00
0C00
3FC0
3FC0
C000
C000
3F00
3F00
00C0
00C0
FF00
FF00
0C00
0C00
ENDCHAR
STARTCHAR $0x0025
ENCODING 37
SWIDTH 960 0
DWIDTH 12 0
BBX 10 14 0 0
BITMAP
F000
F000
F0C0
F0C0
0300
0300
0C00
0C00
3000
3000
C3C0
C3C0
03C0
03C0
ENDCHAR
STARTCHAR $0x0026
ENCODING 38
SWIDTH 960 0
DWIDTH 12 0
BBX 10 14 0 0
BITMAP
3C00
3C00
C300
C300
C300
C300
3C00
3C00
C3C0
C3C0
C300
C300
3CC0
3CC0
ENDCHAR
STARTCHAR $0x0027
ENCODING 39
SWIDTH 320 0
DWIDTH 4 0
BBX 2 4 0 10
BITMAP
C0
C0
C0
C0
ENDCHAR
STARTCHAR $0x0028
ENCODING 40
SWIDTH 640 0
DWIDTH 8 0
BBX 6 18 0 -2
BITMAP
0C
0C
30
30
30
30
C0
C0
C0
C0
C0
C0
30
30
30
30
0C
0C
ENDCHAR
STARTCHAR $0x0029
ENCODING 41
SWIDTH 640 0
DWIDTH 8 0
BBX 6 18 0 -2
BITMAP
C0
C0
30
30
30
30
0C
0C
0C
0C
0C
0C
30
30
30
30
C0
C0
ENDCHAR
STARTCHAR $0x002A
ENCODING 42
SWIDTH 960 0
DWIDTH 12 0
BBX 10 10 0 2
BITMAP
0C00
0C00
CCC0
CCC0
3F00
3F00
CCC0
CCC0
0C00
0C00
ENDCHAR
STARTCHAR $0x002B
ENCODING 43
SWIDTH 960 0
DWIDTH 12 0
BBX 10 10 0 2
BITMAP
0C00
0C00
0C00
0C00
FFC0
FFC0
0C00
0C00
0C00
0C00
ENDCHAR
STARTCHAR $0x002C
ENCODING 44
SWIDTH 480 0
DWIDTH 6 0
BBX 4 4 0 -2
BITMAP
30
30
C0
C0
ENDCHAR
STARTCHAR $0x002D
ENCODING 45
SWIDTH 800 0
DWIDTH 10 0
BBX 8 2 0 6
BITMAP
FF
FF
ENDCHAR
STARTCHAR $0x002E
ENCODING 46
SWIDTH 320 0
DWIDTH 4 0
BBX 2 2 0 0
BITMAP
C0
C0
ENDCHAR
STARTCHAR $0x002F
ENCODING 47
SWIDTH 800 0
DWIDTH 10 0
BBX 8 16 0 -2
BITMAP
03
03
03
03
0C
0C
0C
0C
30
30
30
30
C0
C0
C0
C0
ENDCHAR
STARTCHAR $0x0030
ENCODING 48
SWIDTH 800 0
DWIDTH 10 0
BBX 8 14 0 0
BITMAP
3C
3C
C3
C3
C3
C3
CF
CF
F3
F3
C3
C3
3C
3C
ENDCHAR
STARTCHAR $0x0031
ENCODING 49
SWIDTH 640 0
DWIDTH 8 0
BBX 6 14 0 0
BITMAP
0C
0C
3C
3C
CC
CC
0C
0C
0C
0C
0C
0C
0C
0C
ENDCHAR
STARTCHAR $0x0032
ENCODING 50
SWIDTH 800 0
DWIDTH 10 0
BBX 8 14 0 0
BITMAP
3C
3C
C3
C3
03
03
0C
0C
30
30
C0
C0
FF
FF
ENDCHAR
STARTCHAR $0x0033
ENCODING 51
SWIDTH 800 0
DWIDTH 10 0
BBX 8 14 0 0
BITMAP
FF
FF
0C
0C
30
30
FC
FC
03
03
03
03
FC
FC
ENDCHAR
STARTCHAR $0x0034
ENCODING 52
SWIDTH 800 0
DWIDTH 10 0
BBX 8 14 0 0
BITMAP
03
03
0F
0F
33
33
C3
C3
FF
FF
03
03
03
03
ENDCHAR
STARTCHAR $0x0035
ENCODING 53
SWIDTH 800 0
DWIDTH 10 0
BBX 8 14 0 0
BITMAP
FF
FF
C0
C0
FC
FC
03
03
03
03
C3
C3
3C
3C
ENDCHAR
STARTCHAR $0x0036
ENCODING 54
SWIDTH 800 0
DWIDTH 10 0
BBX 8 14 0 0
BITMAP
3C
3C
C3
C3
C0
C0
FC
FC
C3
C3
C3
C3
3C
3C
ENDCHAR
STARTCHAR $0x0037
ENCODING 55
SWIDTH 800 0
DWIDTH 10 0
BBX 8 14 0 0
BITMAP
FF
FF
03
03
0C
0C
0C
0C
30
30
30
30
30
30
ENDCHAR
STARTCHAR $0x0038
ENCODING 56
SWIDTH 800 0
DWIDTH 10 0
BBX 8 14 0 0
BITMAP
3C
3C
C3
C3
C3
C3
3C
3C
C3
C3
C3
C3
3C
3C
ENDCHAR
STARTCHAR $0x0039
ENCODING 57
SWIDTH 800 0
DWIDTH 10 0
BBX 8 14 0 0
BITMAP
3C
3C
C3
C3
C3
C3
3F
3F
03
03
C3
C3
3C
3C
ENDCHAR
STARTCHAR $0x003A
ENCODING 58
SWIDTH 640 0
DWIDTH 8 0
BBX 2 8 2 2
BITMAP
C0
C0
00
00
00
00
C0
C0
ENDCHAR
STARTCHAR $0x003B
ENCODING 59
SWIDTH 640 0
DWIDTH 8 0
BBX 4 10 0 0
BITMAP
30
30
00
00
00
00
30
30
C0
C0
ENDCHAR
STARTCHAR $0x003C
ENCODING 60
SWIDTH 800 0
DWIDTH 10 0
BBX 8 14 0 0
BITMAP
03
03
0C
0C
30
30
C0
C0
30
30
0C
0C
03
03
ENDCHAR
STARTCHAR $0x003D
ENCODING 61
SWIDTH 800 0
DWIDTH 10 0
BBX 8 6 0 4
BITMAP
FF
FF
00
00
FF
FF
ENDCHAR
STARTCHAR $0x003E
ENCODING 62
SWIDTH 800 0
DWIDTH 10 0
BBX 8 14 0 0
BITMAP
C0
C0
30
30
0C
0C
03
03
0C
0C
30
30
C0
C0
ENDCHAR
STARTCHAR $0x003F
ENCODING 63
SWIDTH 960 0
DWIDTH 12 0
BBX 10 14 0 0
BITMAP
3F00
3F00
C0C0
C0C0
00C0
00C0
0300
0300
0C00
0C00
0000
0000
0C00
0C00
ENDCHAR
STARTCHAR $0x0040
ENCODING 64
SWIDTH 960 0
DWIDTH 12 0
BBX 10 14 0 0
BITMAP
3F00
3F00
C0C0
C0C0
CFC0
CFC0
CCC0
CCC0
CFC0
CFC0
C000
C000
3F00
3F00
ENDCHAR
STARTCHAR $0x0041
ENCODING 65
SWIDTH 800 0
DWIDTH 10 0
BBX 8 14 0 0
BITMAP
3C
3C
C3
C3
C3
C3
C3
C3
FF
FF
C3
C3
C3
C3
ENDCHAR
STARTCHAR $0x0042
ENCODING 66
SWIDTH 800 0
DWIDTH 10 0
BBX 8 14 0 0
BITMAP
FC
FC
C3
C3
C3
C3
FC
FC
C3
C3
C3
C3
FC
FC
ENDCHAR
STARTCHAR $0x0043
ENCODING 67
SWIDTH 800 0
DWIDTH 10 0
BBX 8 14 0 0
BITMAP
3C
3C
C3
C3
C0
C0
C0
C0
C0
C0
C3
C3
3C
3C
ENDCHAR
STARTCHAR $0x0044
ENCODING 68
SWIDTH 800 0
DWIDTH 10 0
BBX 8 14 0 0
BITMAP
FC
FC
C3
C3
C3
C3
C3
C3
C3
C3
C3
C3
FC
FC
ENDCHAR
STARTCHAR $0x0045
ENCODING 69
SWIDTH 800 0
DWIDTH 10 0
BBX 8 14 0 0
BITMAP
FF
FF
C0
C0
C0
C0
FC
FC
C0
C0
C0
C0
FF
FF
ENDCHAR
STARTCHAR $0x0046
ENCODING 70
SWIDTH 800 0
DWIDTH 10 0
BBX 8 14 0 0
BITMAP
FF
FF
C0
C0
C0
C0
FC
FC
C0
C0
C0
C0
C0
C0
ENDCHAR
STARTCHAR $0x0047
ENCODING 71
SWIDTH 800 0
DWIDTH 10 0
BBX 8 14 0 0
BITMAP
3C
3C
C3
C3
C0
C0
CF
CF
C3
C3
C3
C3
3C
3C
ENDCHAR
STARTCHAR $0x0048
ENCODING 72
SWIDTH 800 0
DWIDTH 10 0
BBX 8 14 0 0
BITMAP
C3
C3
C3
C3
C3
C3
FF
FF
C3
C3
C3
C3
C3
C3
ENDCHAR
STARTCHAR $0x0049
ENCODING 73
SWIDTH 640 0
DWIDTH 8 0
BBX 6 14 0 0
BITMAP
FC
FC
30
30
30
30
30
30
30
30
30
30
FC
FC
ENDCHAR
STARTCHAR $0x004A
ENCODING 74
SWIDTH 800 0
DWIDTH 10 0
BBX 8 14 0 0
BITMAP
0F
0F
03
03
03
03
03
03
03
03
C3
C3
3C
3C
ENDCHAR
STARTCHAR $0x004B
ENCODING 75
SWIDTH 800 0
DWIDTH 10 0
BBX 8 14 0 0
BITMAP
C3
C3
C3
C3
CC
CC
F0
F0
CC
CC
C3
C3
C3
C3
ENDCHAR
STARTCHAR $0x004C
ENCODING 76
SWIDTH 800 0
DWIDTH 10 0
BBX 8 14 0 0
BITMAP
C0
C0
C0
C0
C0
C0
C0
C0
C0
C0
C0
C0
FF
FF
ENDCHAR
STARTCHAR $0x004D
ENCODING 77
SWIDTH 960 0
DWIDTH 12 0
BBX 10 14 0 0
BITMAP
C0C0
C0C0
F3C0
F3C0
CCC0
CCC0
C0C0
C0C0
C0C0
C0C0
C0C0
C0C0
C0C0
C0C0
ENDCHAR
STARTCHAR $0x004E
ENCODING 78
SWIDTH 800 0
DWIDTH 10 0
BBX 8 14 0 0
BITMAP
C3
C3
F3
F3
CF
CF
C3
C3
C3
C3
C3
C3
C3
C3
ENDCHAR
STARTCHAR $0x004F
ENCODING 79
SWIDTH 800 0
DWIDTH 10 0
BBX 8 14 0 0
BITMAP
3C
3C
C3
C3
C3
C3
C3
C3
C3
C3
C3
C3
3C
3C
ENDCHAR
STARTCHAR $0x0050
ENCODING 80
SWIDTH 800 0
DWIDTH 10 0
BBX 8 14 0 0
BITMAP
FC
FC
C3
C3
C3
C3
C3
C3
FC
FC
C0
C0
C0
C0
ENDCHAR
STARTCHAR $0x0051
ENCODING 81
SWIDTH 800 0
DWIDTH 10 0
BBX 8 16 0 -2
BITMAP
3C
3C
C3
C3
C3
C3
C3
C3
C3
C3
C3
C3
3C
3C
0F
0F
ENDCHAR
STARTCHAR $0x0052
ENCODING 82
SWIDTH 800 0
DWIDTH 10 0
BBX 8 14 0 0
BITMAP
FC
FC
C3
C3
C3
C3
FC
FC
C3
C3
C3
C3
C3
C3
ENDCHAR
STARTCHAR $0x0053
ENCODING 83
SWIDTH 800 0
DWIDTH 10 0
BBX 8 14 0 0
BITMAP
3C
3C
C3
C3
C0
C0
3C
3C
03
03
C3
C3
3C
3C
ENDCHAR
STARTCHAR $0x0054
ENCODING 84
SWIDTH 960 0
DWIDTH 12 0
BBX 10 14 0 0
BITMAP
FFC0
FFC0
0C00
0C00
0C00
0C00
0C00
0C00
0C00
0C00
0C00
0C00
0C00
0C00
ENDCHAR
STARTCHAR $0x0055
ENCODING 85
SWIDTH 800 0
DWIDTH 10 0
BBX 8 14 0 0
BITMAP
C3
C3
C3
C3
C3
C3
C3
C3
C3
C3
C3
C3
3C
3C
ENDCHAR
STARTCHAR $0x0056
ENCODING 86
SWIDTH 800 0
DWIDTH 10 0
BBX 8 14 0 0
BITMAP
C3
C3
C3
C3
C3
C3
C3
C3
C3
C3
3C
3C
3C
3C
ENDCHAR
STARTCHAR $0x0057
ENCODING 87
SWIDTH 960 0
DWIDTH 12 0
BBX 10 14 0 0
BITMAP
C0C0
C0C0
C0C0
C0C0
C0C0
C0C0
C0C0
C0C0
CCC0
CCC0
CCC0
CCC0
3300
3300
ENDCHAR
STARTCHAR $0x0058
ENCODING 88
SWIDTH 800 0
DWIDTH 10 0
BBX 8 14 0 0
BITMAP
C3
C3
C3
C3
C3
C3
3C
3C
C3
C3
C3
C3
C3
C3
ENDCHAR
STARTCHAR $0x0059
ENCODING 89
SWIDTH 800 0
DWIDTH 10 0
BBX 8 14 0 0
BITMAP
C3
C3
C3
C3
C3
C3
C3
C3
3F
3F
03
03
3C
3C
ENDCHAR
STARTCHAR $0x005A
ENCODING 90
SWIDTH 800 0
DWIDTH 10 0
BBX 8 14 0 0
BITMAP
FF
FF
03
03
0C
0C
30
30
C0
C0
C0
C0
FF
FF
ENDCHAR
STARTCHAR $0x005B
ENCODING 91
SWIDTH 640 0
DWIDTH 8 0
BBX 6 18 0 -2
BITMAP
FC
FC
C0
C0
C0
C0
C0
C0
C0
C0
C0
C0
C0
C0
C0
C0
FC
FC
ENDCHAR
STARTCHAR $0x005C
ENCODING 92
SWIDTH 800 0
DWIDTH 10 0
BBX 8 16 0 -2
BITMAP
C0
C0
C0
C0
30
30
30
30
0C
0C
0C
0C
03
03
03
03
ENDCHAR
STARTCHAR $0x005D
ENCODING 93
SWIDTH 640 0
DWIDTH 8 0
BBX 6 18 0 -2
BITMAP
FC
FC
0C
0C
0C
0C
0C
0C
0C
0C
0C
0C
0C
0C
0C
0C
FC
FC
ENDCHAR
STARTCHAR $0x005E
ENCODING 94
SWIDTH 800 0
DWIDTH 10 0
BBX 10 6 0 8
BITMAP
0C00
0C00
3300
3300
C0C0
C0C0
ENDCHAR
STARTCHAR $0x005F
ENCODING 95
SWIDTH 800 0
DWIDTH 10 0
BBX 8 2 0 -2
BITMAP
FF
FF
ENDCHAR
STARTCHAR $0x0060
ENCODING 96
SWIDTH 480 0
DWIDTH 6 0
BBX 4 4 0 10
BITMAP
C0
C0
30
30
ENDCHAR
STARTCHAR $0x0061
ENCODING 97
SWIDTH 800 0
DWIDTH 10 0
BBX 8 10 0 0
BITMAP
3C
3C
03
03
3F
3F
C3
C3
3F
3F
ENDCHAR
STARTCHAR $0x0062
ENCODING 98
SWIDTH 800 0
DWIDTH 10 0
BBX 8 14 0 0
BITMAP
C0
C0
C0
C0
FC
FC
C3
C3
C3
C3
C3
C3
FC
FC
ENDCHAR
STARTCHAR $0x0063
ENCODING 99
SWIDTH 800 0
DWIDTH 10 0
BBX 8 10 0 0
BITMAP
3C
3C
C3
C3
C0
C0
C0
C0
3F
3F
ENDCHAR
STARTCHAR $0x0064
ENCODING 100
SWIDTH 800 0
DWIDTH 10 0
BBX 8 14 0 0
BITMAP
03
03
03
03
3F
3F
C3
C3
C3
C3
C3
C3
3F
3F
ENDCHAR
STARTCHAR $0x0065
ENCODING 101
SWIDTH 800 0
DWIDTH 10 0
BBX 8 10 0 0
BITMAP
3C
3C
C3
C3
FF
FF
C0
C0
3F
3F
ENDCHAR
STARTCHAR $0x0066
ENCODING 102
SWIDTH 800 0
DWIDTH 10 0
BBX 8 14 0 0
BITMAP
0F
0F
30
30
FC
FC
30
30
30
30
30
30
30
30
ENDCHAR
STARTCHAR $0x0067
ENCODING 103
SWIDTH 800 0
DWIDTH 10 0
BBX 8 14 0 -4
BITMAP
3F
3F
C3
C3
C3
C3
C3
C3
3F
3F
03
03
3C
3C
ENDCHAR
STARTCHAR $0x0068
ENCODING 104
SWIDTH 800 0
DWIDTH 10 0
BBX 8 14 0 0
BITMAP
C0
C0
C0
C0
FC
FC
C3
C3
C3
C3
C3
C3
C3
C3
ENDCHAR
STARTCHAR $0x0069
ENCODING 105
SWIDTH 320 0
DWIDTH 4 0
BBX 2 14 0 0
BITMAP
C0
C0
00
00
C0
C0
C0
C0
C0
C0
C0
C0
C0
C0
ENDCHAR
STARTCHAR $0x006A
ENCODING 106
SWIDTH 640 0
DWIDTH 8 0
BBX 6 18 0 -4
BITMAP
0C
0C
00
00
3C
3C
0C
0C
0C
0C
0C
0C
0C
0C
0C
0C
F0
F0
ENDCHAR
STARTCHAR $0x006B
ENCODING 107
SWIDTH 800 0
DWIDTH 10 0
BBX 8 14 0 0
BITMAP
C0
C0
C0
C0
C3
C3
CC
CC
F0
F0
CC
CC
C3
C3
ENDCHAR
STARTCHAR $0x006C
ENCODING 108
SWIDTH 320 0
DWIDTH 4 0
BBX 2 14 0 0
BITMAP
C0
C0
C0
C0
C0
C0
C0
C0
C0
C0
C0
C0
C0
C0
ENDCHAR
STARTCHAR $0x006D
ENCODING 109
SWIDTH 960 0
DWIDTH 12 0
BBX 10 10 0 0
BITMAP
FF00
FF00
CCC0
CCC0
CCC0
CCC0
CCC0
CCC0
CCC0
CCC0
ENDCHAR
STARTCHAR $0x006E
ENCODING 110
SWIDTH 800 0
DWIDTH 10 0
BBX 8 10 0 0
BITMAP
FC
FC
C3
C3
C3
C3
C3
C3
C3
C3
ENDCHAR
STARTCHAR $0x006F
ENCODING 111
SWIDTH 800 0
DWIDTH 10 0
BBX 8 10 0 0
BITMAP
3C
3C
C3
C3
C3
C3
C3
C3
3C
3C
ENDCHAR
STARTCHAR $0x0070
ENCODING 112
SWIDTH 800 0
DWIDTH 10 0
BBX 8 14 0 -4
BITMAP
FC
FC
C3
C3
C3
C3
C3
C3
FC
FC
C0
C0
C0
C0
ENDCHAR
STARTCHAR $0x0071
ENCODING 113
SWIDTH 800 0
DWIDTH 10 0
BBX 8 14 0 -4
BITMAP
3F
3F
C3
C3
C3
C3
C3
C3
3F
3F
03
03
03
03
ENDCHAR
STARTCHAR $0x0072
ENCODING 114
SWIDTH 800 0
DWIDTH 10 0
BBX 8 10 0 0
BITMAP
FC
FC
C3
C3
C0
C0
C0
C0
C0
C0
ENDCHAR
STARTCHAR $0x0073
ENCODING 115
SWIDTH 800 0
DWIDTH 10 0
BBX 8 10 0 0
BITMAP
3F
3F
C0
C0
3C
3C
03
03
FC
FC
ENDCHAR
STARTCHAR $0x0074
ENCODING 116
SWIDTH 800 0
DWIDTH 10 0
BBX 8 14 0 0
BITMAP
30
30
30
30
FF
FF
30
30
30
30
30
30
0F
0F
ENDCHAR
STARTCHAR $0x0075
ENCODING 117
SWIDTH 800 0
DWIDTH 10 0
BBX 8 10 0 0
BITMAP
C3
C3
C3
C3
C3
C3
C3
C3
3F
3F
ENDCHAR
STARTCHAR $0x0076
ENCODING 118
SWIDTH 800 0
DWIDTH 10 0
BBX 8 10 0 0
BITMAP
C3
C3
C3
C3
C3
C3
3C
3C
3C
3C
ENDCHAR
STARTCHAR $0x0077
ENCODING 119
SWIDTH 960 0
DWIDTH 12 0
BBX 10 10 0 0
BITMAP
C0C0
C0C0
C0C0
C0C0
CCC0
CCC0
CCC0
CCC0
3300
3300
ENDCHAR
STARTCHAR $0x0078
ENCODING 120
SWIDTH 800 0
DWIDTH 10 0
BBX 8 10 0 0
BITMAP
C3
C3
C3
C3
3C
3C
C3
C3
C3
C3
ENDCHAR
STARTCHAR $0x0079
ENCODING 121
SWIDTH 800 0
DWIDTH 10 0
BBX 8 14 0 -4
BITMAP
C3
C3
C3
C3
C3
C3
C3
C3
3F
3F
03
03
3C
3C
ENDCHAR
STARTCHAR $0x007A
ENCODING 122
SWIDTH 800 0
DWIDTH 10 0
BBX 8 10 0 0
BITMAP
FF
FF
0C
0C
30
30
C0
C0
FF
FF
ENDCHAR
STARTCHAR $0x007B
ENCODING 123
SWIDTH 640 0
DWIDTH 8 0
BBX 6 18 0 -2
BITMAP
0C
0C
30
30
30
30
30
30
C0
C0
30
30
30
30
30
30
0C
0C
ENDCHAR
STARTCHAR $0x007C
ENCODING 124
SWIDTH 320 0
DWIDTH 4 0
BBX 2 18 0 -2
BITMAP
C0
C0
C0
C0
C0
C0
C0
C0
C0
C0
C0
C0
C0
C0
C0
C0
C0
C0
ENDCHAR
STARTCHAR $0x007D
ENCODING 125
SWIDTH 640 0
DWIDTH 8 0
BBX 6 18 0 -2
BITMAP
C0
C0
30
30
30
30
30
30
0C
0C
30
30
30
30
30
30
C0
C0
ENDCHAR
STARTCHAR $0x007E
ENCODING 126
SWIDTH 800 0
DWIDTH 10 0
BBX 8 4 0 6
BITMAP
33
33
CC
CC
ENDCHAR
STARTCHAR $0x007F
ENCODING 127
SWIDTH 960 0
DWIDTH 12 0
BBX 0 0 0 0
BITMAP
ENDCHAR
STARTCHAR $0x00A0
ENCODING 160
SWIDTH 960 0
DWIDTH 12 0
BBX 0 0 0 0
BITMAP
ENDCHAR
STARTCHAR $0x00A1
ENCODING 161
SWIDTH 320 0
DWIDTH 4 0
BBX 2 14 0 0
BITMAP
C0
C0
00
00
C0
C0
C0
C0
C0
C0
C0
C0
C0
C0
ENDCHAR
STARTCHAR $0x00A2
ENCODING 162
SWIDTH 960 0
DWIDTH 12 0
BBX 10 14 0 0
BITMAP
0C00
0C00
3F00
3F00
CCC0
CCC0
CC00
CC00
CC00
CC00
3FC0
3FC0
0C00
0C00
ENDCHAR
STARTCHAR $0x00A3
ENCODING 163
SWIDTH 960 0
DWIDTH 12 0
BBX 10 14 0 0
BITMAP
0F00
0F00
3000
3000
3000
3000
FF00
FF00
3000
3000
3C00
3C00
C3C0
C3C0
ENDCHAR
STARTCHAR $0x00A4
ENCODING 164
SWIDTH 960 0
DWIDTH 12 0
BBX 10 10 0 2
BITMAP
C0C0
C0C0
3F00
3F00
3300
3300
3F00
3F00
C0C0
C0C0
ENDCHAR
STARTCHAR $0x00A5
ENCODING 165
SWIDTH 960 0
DWIDTH 12 0
BBX 10 14 0 0
BITMAP
C0C0
C0C0
C0C0
C0C0
3300
3300
FFC0
FFC0
0C00
0C00
FFC0
FFC0
0C00
0C00
ENDCHAR
STARTCHAR $0x00A6
ENCODING 166
SWIDTH 320 0
DWIDTH 4 0
BBX 2 18 0 -2
BITMAP
C0
C0
C0
C0
C0
C0
C0
C0
00
00
C0
C0
C0
C0
C0
C0
C0
C0
ENDCHAR
STARTCHAR $0x00A7
ENCODING 167
SWIDTH 800 0
DWIDTH 10 0
BBX 8 14 0 0
BITMAP
3F
3F
C0
C0
3C
3C
C3
C3
3C
3C
03
03
FC
FC
ENDCHAR
STARTCHAR $0x00A8
ENCODING 168
SWIDTH 960 0
DWIDTH 12 0
BBX 10 2 0 12
BITMAP
F3C0
F3C0
ENDCHAR
STARTCHAR $0x00A9
ENCODING 169
SWIDTH 960 0
DWIDTH 12 0
BBX 10 14 0 0
BITMAP
FFC0
FFC0
C0C0
C0C0
3F00
3F00
3000
3000
3F00
3F00
C0C0
C0C0
FFC0
FFC0
ENDCHAR
STARTCHAR $0x00AA
ENCODING 170
SWIDTH 960 0
DWIDTH 12 0
BBX 10 14 0 0
BITMAP
3F00
3F00
00C0
00C0
3FC0
3FC0
C0C0
C0C0
3FC0
3FC0
0000
0000
FFC0
FFC0
ENDCHAR
STARTCHAR $0x00AB
ENCODING 171
SWIDTH 960 0
DWIDTH 12 0
BBX 10 10 0 2
BITMAP
0CC0
0CC0
3300
3300
CC00
CC00
3300
3300
0CC0
0CC0
ENDCHAR
STARTCHAR $0x00AC
ENCODING 172
SWIDTH 960 0
DWIDTH 12 0
BBX 10 6 0 2
BITMAP
FFC0
FFC0
00C0
00C0
00C0
00C0
ENDCHAR
STARTCHAR $0x00AD
ENCODING 173
SWIDTH 640 0
DWIDTH 8 0
BBX 6 2 0 6
BITMAP
FC
FC
ENDCHAR
STARTCHAR $0x00AE
ENCODING 174
SWIDTH 960 0
DWIDTH 12 0
BBX 10 14 0 0
BITMAP
FFC0
FFC0
C0C0
C0C0
3F00
3F00
3000
3000
3000
3000
C0C0
C0C0
FFC0
FFC0
ENDCHAR
STARTCHAR $0x00AF
ENCODING 175
SWIDTH 640 0
DWIDTH 8 0
BBX 6 2 0 12
BITMAP
FC
FC
ENDCHAR
STARTCHAR $0x00B0
ENCODING 176
SWIDTH 800 0
DWIDTH 10 0
BBX 8 8 0 8
BITMAP
3C
3C
C3
C3
C3
C3
3C
3C
ENDCHAR
STARTCHAR $0x00B1
ENCODING 177
SWIDTH 960 0
DWIDTH 12 0
BBX 10 14 0 0
BITMAP
0C00
0C00
0C00
0C00
FFC0
FFC0
0C00
0C00
0C00
0C00
0000
0000
FFC0
FFC0
ENDCHAR
STARTCHAR $0x00B2
ENCODING 178
SWIDTH 640 0
DWIDTH 8 0
BBX 6 8 0 8
BITMAP
F0
F0
0C
0C
30
30
FC
FC
ENDCHAR
STARTCHAR $0x00B3
ENCODING 179
SWIDTH 640 0
DWIDTH 8 0
BBX 6 8 0 8
BITMAP
FC
FC
30
30
0C
0C
F0
F0
ENDCHAR
STARTCHAR $0x00B4
ENCODING 180
SWIDTH 480 0
DWIDTH 6 0
BBX 4 4 0 14
BITMAP
30
30
C0
C0
ENDCHAR
STARTCHAR $0x00B5
ENCODING 181
SWIDTH 960 0
DWIDTH 12 0
BBX 10 14 0 -4
BITMAP
C000
C000
C300
C300
C300
C300
C300
C300
FCC0
FCC0
C000
C000
C000
C000
ENDCHAR
STARTCHAR $0x00B6
ENCODING 182
SWIDTH 960 0
DWIDTH 12 0
BBX 10 14 0 0
BITMAP
3FC0
3FC0
FCC0
FCC0
FCC0
FCC0
3CC0
3CC0
0CC0
0CC0
0CC0
0CC0
0CC0
0CC0
ENDCHAR
STARTCHAR $0x00B7
ENCODING 183
SWIDTH 320 0
DWIDTH 4 0
BBX 2 2 0 6
BITMAP
C0
C0
ENDCHAR
STARTCHAR $0x00B8
ENCODING 184
SWIDTH 640 0
DWIDTH 8 0
BBX 6 6 0 -4
BITMAP
0C
0C
30
30
C0
C0
ENDCHAR
STARTCHAR $0x00B9
ENCODING 185
SWIDTH 960 0
DWIDTH 12 0
BBX 4 8 0 8
BITMAP
30
30
F0
F0
30
30
30
30
ENDCHAR
STARTCHAR $0x00BA
ENCODING 186
SWIDTH 800 0
DWIDTH 10 0
BBX 8 12 0 4
BITMAP
3C
3C
C3
C3
C3
C3
3C
3C
00
00
FF
FF
ENDCHAR
STARTCHAR $0x00BB
ENCODING 187
SWIDTH 960 0
DWIDTH 12 0
BBX 10 10 0 2
BITMAP
CC00
CC00
3300
3300
0CC0
0CC0
3300
3300
CC00
CC00
ENDCHAR
STARTCHAR $0x00BC
ENCODING 188
SWIDTH 960 0
DWIDTH 12 0
BBX 10 16 0 0
BITMAP
3000
3000
F000
F000
3000
3000
3000
3000
0F00
0F00
3300
3300
3FC0
3FC0
0300
0300
ENDCHAR
STARTCHAR $0x00BD
ENCODING 189
SWIDTH 960 0
DWIDTH 12 0
BBX 10 16 0 0
BITMAP
3000
3000
F000
F000
3000
3000
3000
3000
0F00
0F00
00C0
00C0
0300
0300
0FC0
0FC0
ENDCHAR
STARTCHAR $0x00BE
ENCODING 190
SWIDTH 960 0
DWIDTH 12 0
BBX 10 16 0 0
BITMAP
FC00
FC00
3000
3000
0C00
0C00
F000
F000
0F00
0F00
3300
3300
3FC0
3FC0
0300
0300
ENDCHAR
STARTCHAR $0x00BF
ENCODING 191
SWIDTH 960 0
DWIDTH 12 0
BBX 10 14 0 0
BITMAP
0C00
0C00
0000
0000
0C00
0C00
3000
3000
C000
C000
C0C0
C0C0
3F00
3F00
ENDCHAR
STARTCHAR $0x00C0
ENCODING 192
SWIDTH 960 0
DWIDTH 12 0
BBX 10 18 0 0
BITMAP
0C00
0C00
0300
0300
0000
0000
0C00
0C00
0C00
0C00
3300
3300
3F00
3F00
C0C0
C0C0
C0C0
C0C0
ENDCHAR
STARTCHAR $0x00C1
ENCODING 193
SWIDTH 960 0
DWIDTH 12 0
BBX 10 18 0 0
BITMAP
0300
0300
0C00
0C00
0000
0000
0C00
0C00
0C00
0C00
3300
3300
3F00
3F00
C0C0
C0C0
C0C0
C0C0
ENDCHAR
STARTCHAR $0x00C2
ENCODING 194
SWIDTH 960 0
DWIDTH 12 0
BBX 10 18 0 0
BITMAP
0F00
0F00
30C0
30C0
0000
0000
0C00
0C00
0C00
0C00
3300
3300
3F00
3F00
C0C0
C0C0
C0C0
C0C0
ENDCHAR
STARTCHAR $0x00C3
ENCODING 195
SWIDTH 960 0
DWIDTH 12 0
BBX 10 18 0 0
BITMAP
3CC0
3CC0
CF00
CF00
0000
0000
0C00
0C00
0C00
0C00
3300
3300
3F00
3F00
C0C0
C0C0
C0C0
C0C0
ENDCHAR
STARTCHAR $0x00C4
ENCODING 196
SWIDTH 960 0
DWIDTH 12 0
BBX 10 18 0 0
BITMAP
3300
3300
3300
3300
0000
0000
0C00
0C00
0C00
0C00
3300
3300
3F00
3F00
C0C0
C0C0
C0C0
C0C0
ENDCHAR
STARTCHAR $0x00C5
ENCODING 197
SWIDTH 960 0
DWIDTH 12 0
BBX 10 18 0 0
BITMAP
0F00
0F00
30C0
30C0
30C0
30C0
0F00
0F00
0C00
0C00
3300
3300
3F00
3F00
C0C0
C0C0
C0C0
C0C0
ENDCHAR
STARTCHAR $0x00C6
ENCODING 198
SWIDTH 960 0
DWIDTH 12 0
BBX 10 14 0 0
BITMAP
FFC0
FFC0
CC00
CC00
CC00
CC00
FFC0
FFC0
CC00
CC00
CC00
CC00
CFC0
CFC0
ENDCHAR
STARTCHAR $0x00C7
ENCODING 199
SWIDTH 960 0
DWIDTH 12 0
BBX 10 18 0 -4
BITMAP
3F00
3F00
C0C0
C0C0
C000
C000
C000
C000
C000
C000
C0C0
C0C0
3F00
3F00
0C00
0C00
3000
3000
ENDCHAR
STARTCHAR $0x00C8
ENCODING 200
SWIDTH 960 0
DWIDTH 12 0
BBX 10 18 0 0
BITMAP
0C00
0C00
0300
0300
0000
0000
FFC0
FFC0
C000
C000
FF00
FF00
C000
C000
C000
C000
FFC0
FFC0
ENDCHAR
STARTCHAR $0x00C9
ENCODING 201
SWIDTH 960 0
DWIDTH 12 0
BBX 10 18 0 0
BITMAP
0300
0300
0C00
0C00
0000
0000
FFC0
FFC0
C000
C000
FF00
FF00
C000
C000
C000
C000
FFC0
FFC0
ENDCHAR
STARTCHAR $0x00CA
ENCODING 202
SWIDTH 960 0
DWIDTH 12 0
BBX 10 18 0 0
BITMAP
0F00
0F00
30C0
30C0
0000
0000
FFC0
FFC0
C000
C000
FF00
FF00
C000
C000
C000
C000
FFC0
FFC0
ENDCHAR
STARTCHAR $0x00CB
ENCODING 203
SWIDTH 960 0
DWIDTH 12 0
BBX 10 18 0 0
BITMAP
3300
3300
3300
3300
0000
0000
FFC0
FFC0
C000
C000
FF00
FF00
C000
C000
C000
C000
FFC0
FFC0
ENDCHAR
STARTCHAR $0x00CC
ENCODING 204
SWIDTH 800 0
DWIDTH 10 0
BBX 6 18 0 0
BITMAP
30
30
0C
0C
00
00
FC
FC
30
30
30
30
30
30
30
30
FC
FC
ENDCHAR
STARTCHAR $0x00CD
ENCODING 205
SWIDTH 960 0
DWIDTH 12 0
BBX 6 18 0 0
BITMAP
0C
0C
30
30
00
00
FC
FC
30
30
30
30
30
30
30
30
FC
FC
ENDCHAR
STARTCHAR $0x00CE
ENCODING 206
SWIDTH 800 0
DWIDTH 10 0
BBX 8 18 0 0
BITMAP
3C
3C
C3
C3
00
00
FC
FC
30
30
30
30
30
30
30
30
FC
FC
ENDCHAR
STARTCHAR $0x00CF
ENCODING 207
SWIDTH 640 0
DWIDTH 8 0
BBX 6 18 0 0
BITMAP
CC
CC
CC
CC
00
00
FC
FC
30
30
30
30
30
30
30
30
FC
FC
ENDCHAR
STARTCHAR $0x00D0
ENCODING 208
SWIDTH 960 0
DWIDTH 12 0
BBX 10 14 0 0
BITMAP
FF00
FF00
30C0
30C0
30C0
30C0
FCC0
FCC0
30C0
30C0
30C0
30C0
FF00
FF00
ENDCHAR
STARTCHAR $0x00D1
ENCODING 209
SWIDTH 960 0
DWIDTH 12 0
BBX 10 18 0 0
BITMAP
3CC0
3CC0
CF00
CF00
0000
0000
C0C0
C0C0
F0C0
F0C0
CCC0
CCC0
C3C0
C3C0
C0C0
C0C0
C0C0
C0C0
ENDCHAR
STARTCHAR $0x00D2
ENCODING 210
SWIDTH 960 0
DWIDTH 12 0
BBX 10 18 0 0
BITMAP
0C00
0C00
0300
0300
0000
0000
3F00
3F00
C0C0
C0C0
C0C0
C0C0
C0C0
C0C0
C0C0
C0C0
3F00
3F00
ENDCHAR
STARTCHAR $0x00D3
ENCODING 211
SWIDTH 960 0
DWIDTH 12 0
BBX 10 18 0 0
BITMAP
0300
0300
0C00
0C00
0000
0000
3F00
3F00
C0C0
C0C0
C0C0
C0C0
C0C0
C0C0
C0C0
C0C0
3F00
3F00
ENDCHAR
STARTCHAR $0x00D4
ENCODING 212
SWIDTH 960 0
DWIDTH 12 0
BBX 10 18 0 0
BITMAP
0F00
0F00
30C0
30C0
0000
0000
3F00
3F00
C0C0
C0C0
C0C0
C0C0
C0C0
C0C0
C0C0
C0C0
3F00
3F00
ENDCHAR
STARTCHAR $0x00D5
ENCODING 213
SWIDTH 960 0
DWIDTH 12 0
BBX 10 18 0 0
BITMAP
3CC0
3CC0
CF00
CF00
0000
0000
3F00
3F00
C0C0
C0C0
C0C0
C0C0
C0C0
C0C0
C0C0
C0C0
3F00
3F00
ENDCHAR
STARTCHAR $0x00D6
ENCODING 214
SWIDTH 960 0
DWIDTH 12 0
BBX 10 18 0 0
BITMAP
3300
3300
3300
3300
0000
0000
3F00
3F00
C0C0
C0C0
C0C0
C0C0
C0C0
C0C0
C0C0
C0C0
3F00
3F00
ENDCHAR
STARTCHAR $0x00D7
ENCODING 215
SWIDTH 960 0
DWIDTH 12 0
BBX 10 10 0 2
BITMAP
C0C0
C0C0
3300
3300
0C00
0C00
3300
3300
C0C0
C0C0
ENDCHAR
STARTCHAR $0x00D8
ENCODING 216
SWIDTH 960 0
DWIDTH 12 0
BBX 10 18 0 -2
BITMAP
00C0
00C0
3F00
3F00
C3C0
C3C0
CCC0
CCC0
CCC0
CCC0
CCC0
CCC0
F0C0
F0C0
3F00
3F00
C000
C000
ENDCHAR
STARTCHAR $0x00D9
ENCODING 217
SWIDTH 960 0
DWIDTH 12 0
BBX 10 18 0 0
BITMAP
0C00
0C00
0300
0300
0000
0000
C0C0
C0C0
C0C0
C0C0
C0C0
C0C0
C0C0
C0C0
C0C0
C0C0
3F00
3F00
ENDCHAR
STARTCHAR $0x00DA
ENCODING 218
SWIDTH 960 0
DWIDTH 12 0
BBX 10 18 0 0
BITMAP
0300
0300
0C00
0C00
0000
0000
C0C0
C0C0
C0C0
C0C0
C0C0
C0C0
C0C0
C0C0
C0C0
C0C0
3F00
3F00
ENDCHAR
STARTCHAR $0x00DB
ENCODING 219
SWIDTH 960 0
DWIDTH 12 0
BBX 10 18 0 0
BITMAP
0F00
0F00
30C0
30C0
0000
0000
C0C0
C0C0
C0C0
C0C0
C0C0
C0C0
C0C0
C0C0
C0C0
C0C0
3F00
3F00
ENDCHAR
STARTCHAR $0x00DC
ENCODING 220
SWIDTH 960 0
DWIDTH 12 0
BBX 10 18 0 0
BITMAP
3300
3300
3300
3300
0000
0000
C0C0
C0C0
C0C0
C0C0
C0C0
C0C0
C0C0
C0C0
C0C0
C0C0
3F00
3F00
ENDCHAR
STARTCHAR $0x00DD
ENCODING 221
SWIDTH 960 0
DWIDTH 12 0
BBX 10 18 0 0
BITMAP
0300
0300
0C00
0C00
0000
0000
C0C0
C0C0
C0C0
C0C0
3300
3300
0C00
0C00
0C00
0C00
0C00
0C00
ENDCHAR
STARTCHAR $0x00DE
ENCODING 222
SWIDTH 960 0
DWIDTH 12 0
BBX 10 16 0 0
BITMAP
C000
C000
FF00
FF00
C0C0
C0C0
C0C0
C0C0
C0C0
C0C0
FF00
FF00
C000
C000
C000
C000
ENDCHAR
STARTCHAR $0x00DF
ENCODING 223
SWIDTH 960 0
DWIDTH 12 0
BBX 10 18 0 -4
BITMAP
3F00
3F00
C0C0
C0C0
C0C0
C0C0
FF00
FF00
C0C0
C0C0
C0C0
C0C0
FF00
FF00
C000
C000
C000
C000
ENDCHAR
STARTCHAR $0x00E0
ENCODING 224
SWIDTH 960 0
DWIDTH 12 0
BBX 10 18 0 0
BITMAP
0C00
0C00
0300
0300
0000
0000
0000
0000
3F00
3F00
00C0
00C0
3FC0
3FC0
C0C0
C0C0
3FC0
3FC0
ENDCHAR
STARTCHAR $0x00E1
ENCODING 225
SWIDTH 960 0
DWIDTH 12 0
BBX 10 18 0 0
BITMAP
0300
0300
0C00
0C00
0000
0000
0000
0000
3F00
3F00
00C0
00C0
3FC0
3FC0
C0C0
C0C0
3FC0
3FC0
ENDCHAR
STARTCHAR $0x00E2
ENCODING 226
SWIDTH 960 0
DWIDTH 12 0
BBX 10 18 0 0
BITMAP
0F00
0F00
30C0
30C0
0000
0000
0000
0000
3F00
3F00
00C0
00C0
3FC0
3FC0
C0C0
C0C0
3FC0
3FC0
ENDCHAR
STARTCHAR $0x00E3
ENCODING 227
SWIDTH 960 0
DWIDTH 12 0
BBX 10 18 0 0
BITMAP
3CC0
3CC0
CF00
CF00
0000
0000
0000
0000
3F00
3F00
00C0
00C0
3FC0
3FC0
C0C0
C0C0
3FC0
3FC0
ENDCHAR
STARTCHAR $0x00E4
ENCODING 228
SWIDTH 960 0
DWIDTH 12 0
BBX 10 18 0 0
BITMAP
3300
3300
3300
3300
0000
0000
0000
0000
3F00
3F00
00C0
00C0
3FC0
3FC0
C0C0
C0C0
3FC0
3FC0
ENDCHAR
STARTCHAR $0x00E5
ENCODING 229
SWIDTH 960 0
DWIDTH 12 0
BBX 10 18 0 0
BITMAP
0F00
0F00
30C0
30C0
0F00
0F00
0000
0000
3F00
3F00
00C0
00C0
3FC0
3FC0
C0C0
C0C0
3FC0
3FC0
ENDCHAR
STARTCHAR $0x00E6
ENCODING 230
SWIDTH 960 0
DWIDTH 12 0
BBX 10 10 0 0
BITMAP
FFC0
FFC0
0CC0
0CC0
3FC0
3FC0
CC00
CC00
FFC0
FFC0
ENDCHAR
STARTCHAR $0x00E7
ENCODING 231
SWIDTH 960 0
DWIDTH 12 0
BBX 10 14 0 -4
BITMAP
3F00
3F00
C0C0
C0C0
C000
C000
C000
C000
3FC0
3FC0
0300
0300
0C00
0C00
ENDCHAR
STARTCHAR $0x00E8
ENCODING 232
SWIDTH 960 0
DWIDTH 12 0
BBX 10 18 0 0
BITMAP
0C00
0C00
0300
0300
0000
0000
0000
0000
3F00
3F00
C0C0
C0C0
FFC0
FFC0
C000
C000
3FC0
3FC0
ENDCHAR
STARTCHAR $0x00E9
ENCODING 233
SWIDTH 960 0
DWIDTH 12 0
BBX 10 18 0 0
BITMAP
0300
0300
0C00
0C00
0000
0000
0000
0000
3F00
3F00
C0C0
C0C0
FFC0
FFC0
C000
C000
3FC0
3FC0
ENDCHAR
STARTCHAR $0x00EA
ENCODING 234
SWIDTH 960 0
DWIDTH 12 0
BBX 10 18 0 0
BITMAP
0F00
0F00
30C0
30C0
0000
0000
0000
0000
3F00
3F00
C0C0
C0C0
FFC0
FFC0
C000
C000
3FC0
3FC0
ENDCHAR
STARTCHAR $0x00EB
ENCODING 235
SWIDTH 960 0
DWIDTH 12 0
BBX 10 18 0 0
BITMAP
3300
3300
3300
3300
0000
0000
0000
0000
3F00
3F00
C0C0
C0C0
FFC0
FFC0
C000
C000
3FC0
3FC0
ENDCHAR
STARTCHAR $0x00EC
ENCODING 236
SWIDTH 640 0
DWIDTH 8 0
BBX 6 18 0 0
BITMAP
30
30
0C
0C
00
00
00
00
F0
F0
30
30
30
30
30
30
FC
FC
ENDCHAR
STARTCHAR $0x00ED
ENCODING 237
SWIDTH 640 0
DWIDTH 8 0
BBX 6 18 0 0
BITMAP
0C
0C
30
30
00
00
00
00
F0
F0
30
30
30
30
30
30
FC
FC
ENDCHAR
STARTCHAR $0x00EE
ENCODING 238
SWIDTH 800 0
DWIDTH 10 0
BBX 8 18 0 0
BITMAP
3C
3C
C3
C3
00
00
00
00
F0
F0
30
30
30
30
30
30
FC
FC
ENDCHAR
STARTCHAR $0x00EF
ENCODING 239
SWIDTH 640 0
DWIDTH 8 0
BBX 6 18 0 0
BITMAP
CC
CC
CC
CC
00
00
00
00
F0
F0
30
30
30
30
30
30
FC
FC
ENDCHAR
STARTCHAR $0x00F0
ENCODING 240
SWIDTH 960 0
DWIDTH 12 0
BBX 10 18 0 0
BITMAP
3000
3000
0FC0
0FC0
FC00
FC00
0300
0300
3F00
3F00
C0C0
C0C0
C0C0
C0C0
C0C0
C0C0
3F00
3F00
ENDCHAR
STARTCHAR $0x00F1
ENCODING 241
SWIDTH 960 0
DWIDTH 12 0
BBX 10 18 0 0
BITMAP
3CC0
3CC0
CF00
CF00
0000
0000
0000
0000
CF00
CF00
F0C0
F0C0
C0C0
C0C0
C0C0
C0C0
C0C0
C0C0
ENDCHAR
STARTCHAR $0x00F2
ENCODING 242
SWIDTH 960 0
DWIDTH 12 0
BBX 10 18 0 0
BITMAP
0C00
0C00
0300
0300
0000
0000
0000
0000
3F00
3F00
C0C0
C0C0
C0C0
C0C0
C0C0
C0C0
3F00
3F00
ENDCHAR
STARTCHAR $0x00F3
ENCODING 243
SWIDTH 960 0
DWIDTH 12 0
BBX 10 18 0 0
BITMAP
0300
0300
0C00
0C00
0000
0000
0000
0000
3F00
3F00
C0C0
C0C0
C0C0
C0C0
C0C0
C0C0
3F00
3F00
ENDCHAR
STARTCHAR $0x00F4
ENCODING 244
SWIDTH 960 0
DWIDTH 12 0
BBX 10 18 0 0
BITMAP
0F00
0F00
30C0
30C0
0000
0000
0000
0000
3F00
3F00
C0C0
C0C0
C0C0
C0C0
C0C0
C0C0
3F00
3F00
ENDCHAR
STARTCHAR $0x00F5
ENCODING 245
SWIDTH 960 0
DWIDTH 12 0
BBX 10 18 0 0
BITMAP
3CC0
3CC0
CF00
CF00
0000
0000
0000
0000
3F00
3F00
C0C0
C0C0
C0C0
C0C0
C0C0
C0C0
3F00
3F00
ENDCHAR
STARTCHAR $0x00F6
ENCODING 246
SWIDTH 960 0
DWIDTH 12 0
BBX 10 18 0 0
BITMAP
3300
3300
3300
3300
0000
0000
0000
0000
3F00
3F00
C0C0
C0C0
C0C0
C0C0
C0C0
C0C0
3F00
3F00
ENDCHAR
STARTCHAR $0x00F7
ENCODING 247
SWIDTH 960 0
DWIDTH 12 0
BBX 10 10 0 2
BITMAP
0C00
0C00
0000
0000
FFC0
FFC0
0000
0000
0C00
0C00
ENDCHAR
STARTCHAR $0x00F8
ENCODING 248
SWIDTH 960 0
DWIDTH 12 0
BBX 10 14 0 -2
BITMAP
00C0
00C0
3F00
3F00
C3C0
C3C0
CCC0
CCC0
F0C0
F0C0
3F00
3F00
C000
C000
ENDCHAR
STARTCHAR $0x00F9
ENCODING 249
SWIDTH 960 0
DWIDTH 12 0
BBX 10 18 0 0
BITMAP
0C00
0C00
0300
0300
0000
0000
0000
0000
C0C0
C0C0
C0C0
C0C0
C0C0
C0C0
C3C0
C3C0
3CC0
3CC0
ENDCHAR
STARTCHAR $0x00FA
ENCODING 250
SWIDTH 960 0
DWIDTH 12 0
BBX 10 18 0 0
BITMAP
0300
0300
0C00
0C00
0000
0000
0000
0000
C0C0
C0C0
C0C0
C0C0
C0C0
C0C0
C3C0
C3C0
3CC0
3CC0
ENDCHAR
STARTCHAR $0x00FB
ENCODING 251
SWIDTH 960 0
DWIDTH 12 0
BBX 10 18 0 0
BITMAP
0F00
0F00
30C0
30C0
0000
0000
0000
0000
C0C0
C0C0
C0C0
C0C0
C0C0
C0C0
C3C0
C3C0
3CC0
3CC0
ENDCHAR
STARTCHAR $0x00FC
ENCODING 252
SWIDTH 960 0
DWIDTH 12 0
BBX 10 18 0 0
BITMAP
3300
3300
3300
3300
0000
0000
0000
0000
C0C0
C0C0
C0C0
C0C0
C0C0
C0C0
C3C0
C3C0
3CC0
3CC0
ENDCHAR
STARTCHAR $0x00FD
ENCODING 253
SWIDTH 960 0
DWIDTH 12 0
BBX 10 22 0 -4
BITMAP
0300
0300
0C00
0C00
0000
0000
0000
0000
C0C0
C0C0
C0C0
C0C0
C0C0
C0C0
C0C0
C0C0
3FC0
3FC0
00C0
00C0
3F00
3F00
ENDCHAR
STARTCHAR $0x00FE
ENCODING 254
SWIDTH 960 0
DWIDTH 12 0
BBX 10 18 0 -4
BITMAP
C000
C000
C000
C000
FF00
FF00
C0C0
C0C0
C0C0
C0C0
C0C0
C0C0
FF00
FF00
C000
C000
C000
C000
ENDCHAR
STARTCHAR $0x00FF
ENCODING 255
SWIDTH 960 0
DWIDTH 12 0
BBX 10 22 0 -4
BITMAP
3300
3300
3300
3300
0000
0000
0000
0000
C0C0
C0C0
C0C0
C0C0
C0C0
C0C0
C0C0
C0C0
3FC0
3FC0
00C0
00C0
3F00
3F00
ENDCHAR
ENDFONT
